<svg width="60" height="60" viewBox="0 0 60 60" fill="none" xmlns="http://www.w3.org/2000/svg">
  <path opacity="0.21" fill-rule="evenodd" clip-rule="evenodd"
    d="M0 30V37C0 49.7025 10.2975 60 23 60H30H37C49.7025 60 60 49.7025 60 37V30V23C60 10.2975 49.7025 0 37 0H30H23C10.2975 0 0 10.2975 0 23V30Z"
    fill="#4AD991" />
  <path
    d="M21.3214 14.5714C20.2132 14.5714 19.1504 15.0117 18.3667 15.7953C17.5831 16.579 17.1429 17.6418 17.1429 18.75V41.25C17.1429 42.3582 17.5831 43.4211 18.3667 44.2047C19.1504 44.9883 20.2132 45.4286 21.3214 45.4286H33.6231L30.8499 42.6553C30.5812 42.3867 30.3681 42.0678 30.2228 41.7168C30.0774 41.3658 30.0026 40.9896 30.0026 40.6097C30.0026 40.2298 30.0774 39.8537 30.2228 39.5027C30.3681 39.1517 30.5812 38.8328 30.8499 38.5642C31.1185 38.2955 31.4374 38.0824 31.7884 37.9371C32.1393 37.7917 32.5155 37.7169 32.8954 37.7169C33.2753 37.7169 33.6515 37.7917 34.0025 37.9371C34.3535 38.0824 34.6724 38.2955 34.941 38.5642L36.75 40.3732L42.4187 34.7044C42.5559 34.5673 42.702 34.4473 42.8571 34.3444V18.75C42.8571 17.6418 42.4169 16.579 41.6333 15.7953C40.8496 15.0117 39.7868 14.5714 38.6786 14.5714H21.3214ZM25.5 23.25C25.5 23.6763 25.3307 24.085 25.0293 24.3864C24.7279 24.6878 24.3191 24.8572 23.8929 24.8572C23.4666 24.8572 23.0578 24.6878 22.7564 24.3864C22.455 24.085 22.2857 23.6763 22.2857 23.25C22.2857 22.8238 22.455 22.415 22.7564 22.1136C23.0578 21.8122 23.4666 21.6429 23.8929 21.6429C24.3191 21.6429 24.7279 21.8122 25.0293 22.1136C25.3307 22.415 25.5 22.8238 25.5 23.25ZM23.8929 31.6072C23.4666 31.6072 23.0578 31.4378 22.7564 31.1364C22.455 30.835 22.2857 30.4263 22.2857 30C22.2857 29.5738 22.455 29.165 22.7564 28.8636C23.0578 28.5622 23.4666 28.3929 23.8929 28.3929C24.3191 28.3929 24.7279 28.5622 25.0293 28.8636C25.3307 29.165 25.5 29.5738 25.5 30C25.5 30.4263 25.3307 30.835 25.0293 31.1364C24.7279 31.4378 24.3191 31.6072 23.8929 31.6072ZM23.8929 38.3572C23.4666 38.3572 23.0578 38.1878 22.7564 37.8864C22.455 37.585 22.2857 37.1763 22.2857 36.75C22.2857 36.3238 22.455 35.915 22.7564 35.6136C23.0578 35.3122 23.4666 35.1429 23.8929 35.1429C24.3191 35.1429 24.7279 35.3122 25.0293 35.6136C25.3307 35.915 25.5 36.3238 25.5 36.75C25.5 37.1763 25.3307 37.585 25.0293 37.8864C24.7279 38.1878 24.3191 38.3572 23.8929 38.3572ZM28.3929 22.2857H36.75C37.0057 22.2857 37.251 22.3873 37.4319 22.5682C37.6127 22.749 37.7143 22.9943 37.7143 23.25C37.7143 23.5058 37.6127 23.751 37.4319 23.9319C37.251 24.1127 37.0057 24.2143 36.75 24.2143H28.3929C28.1371 24.2143 27.8918 24.1127 27.711 23.9319C27.5302 23.751 27.4286 23.5058 27.4286 23.25C27.4286 22.9943 27.5302 22.749 27.711 22.5682C27.8918 22.3873 28.1371 22.2857 28.3929 22.2857ZM27.4286 30C27.4286 29.7443 27.5302 29.499 27.711 29.3182C27.8918 29.1373 28.1371 29.0357 28.3929 29.0357H36.75C37.0057 29.0357 37.251 29.1373 37.4319 29.3182C37.6127 29.499 37.7143 29.7443 37.7143 30C37.7143 30.2558 37.6127 30.501 37.4319 30.6819C37.251 30.8627 37.0057 30.9643 36.75 30.9643H28.3929C28.1371 30.9643 27.8918 30.8627 27.711 30.6819C27.5302 30.501 27.4286 30.2558 27.4286 30ZM28.3929 35.7857H36.75C37.0057 35.7857 37.251 35.8873 37.4319 36.0682C37.6127 36.249 37.7143 36.4943 37.7143 36.75C37.7143 37.0058 37.6127 37.251 37.4319 37.4319C37.251 37.6127 37.0057 37.7143 36.75 37.7143H28.3929C28.1371 37.7143 27.8918 37.6127 27.711 37.4319C27.5302 37.251 27.4286 37.0058 27.4286 36.75C27.4286 36.4943 27.5302 36.249 27.711 36.0682C27.8918 35.8873 28.1371 35.7857 28.3929 35.7857ZM37.4314 45.1457L45.1457 37.4314C45.2405 37.3432 45.3164 37.2367 45.3691 37.1184C45.4218 37.0001 45.4502 36.8724 45.4525 36.743C45.4548 36.6135 45.4309 36.4849 45.3824 36.3648C45.3339 36.2447 45.2618 36.1357 45.1702 36.0441C45.0786 35.9525 44.9695 35.8804 44.8495 35.8319C44.7294 35.7834 44.6008 35.7595 44.4713 35.7618C44.3419 35.7641 44.2142 35.7924 44.0959 35.8452C43.9776 35.8979 43.8711 35.9738 43.7829 36.0686L36.75 43.1014L33.5769 39.9283C33.3941 39.758 33.1523 39.6652 32.9025 39.6696C32.6527 39.6741 32.4143 39.7753 32.2376 39.9519C32.061 40.1286 31.9598 40.367 31.9553 40.6168C31.9509 40.8666 32.0437 41.1084 32.214 41.2912L36.0686 45.1457C36.2494 45.3263 36.4945 45.4277 36.75 45.4277C37.0055 45.4277 37.2506 45.3263 37.4314 45.1457Z"
    fill="#36BF7B" />
</svg>