<svg width="60" height="60" viewBox="0 0 60 60" fill="none" xmlns="http://www.w3.org/2000/svg">
  <path opacity="0.3" fill-rule="evenodd" clip-rule="evenodd"
    d="M0 30V37C0 49.7025 10.2975 60 23 60H30H37C49.7025 60 60 49.7025 60 37V30V23C60 10.2975 49.7025 0 37 0H30H23C10.2975 0 0 10.2975 0 23V30Z"
    fill="#FF9066" />
  <path
    d="M28.5 16.084C26.0959 16.357 23.8157 17.2956 21.916 18.794L23.56 20.44C23.825 20.7243 23.9692 21.1004 23.9623 21.489C23.9555 21.8776 23.7981 22.2484 23.5232 22.5232C23.2484 22.7981 22.8776 22.9555 22.489 22.9623C22.1004 22.9692 21.7243 22.825 21.44 22.56L19.788 20.91C18.3849 22.6717 17.4715 24.7724 17.14 27H20.5C20.8978 27 21.2794 27.158 21.5607 27.4393C21.842 27.7206 22 28.1022 22 28.5C22 28.8978 21.842 29.2794 21.5607 29.5607C21.2794 29.842 20.8978 30 20.5 30H17.05C17.3614 33.2098 18.8284 36.1971 21.178 38.406C21.4614 38.6797 21.6257 39.054 21.6354 39.4478C21.6452 39.8417 21.4995 40.2236 21.23 40.511C20.9605 40.7984 20.5887 40.9682 20.195 40.9837C19.8013 40.9993 19.4173 40.8593 19.126 40.594C16.046 37.708 14 33.452 14 28.886C14 20.102 21.174 13 30 13C38.826 13 46 20.1 46 28.886C45.9961 31.0782 45.5461 33.2466 44.6776 35.2594C43.8091 37.2721 42.5402 39.0872 40.948 40.594C40.6567 40.8593 40.2727 40.9993 39.879 40.9837C39.4853 40.9682 39.1135 40.7984 38.844 40.511C38.5745 40.2236 38.4288 39.8417 38.4386 39.4478C38.4483 39.054 38.6126 38.6797 38.896 38.406C41.2296 36.1936 42.6724 33.2034 42.952 30H39.5C39.1022 30 38.7206 29.842 38.4393 29.5607C38.158 29.2794 38 28.8978 38 28.5C38 28.1022 38.158 27.7206 38.4393 27.4393C38.7206 27.158 39.1022 27 39.5 27H42.86C42.012 21.268 37.354 16.75 31.5 16.084V18.5C31.5 18.8978 31.342 19.2794 31.0607 19.5607C30.7794 19.842 30.3978 20 30 20C29.6022 20 29.2206 19.842 28.9393 19.5607C28.658 19.2794 28.5 18.8978 28.5 18.5V16.084ZM36.898 20.614C37.0797 20.4697 37.306 20.393 37.5381 20.3972C37.7701 20.4015 37.9935 20.4863 38.1699 20.6371C38.3463 20.7879 38.4647 20.9954 38.5048 21.224C38.545 21.4526 38.5044 21.6881 38.39 21.89L38.17 22.282C37.3657 23.7022 36.5564 25.1196 35.742 26.534C35.0909 27.6659 34.4309 28.7926 33.762 29.914C33.5113 30.3359 33.2553 30.7546 32.994 31.17C32.794 31.484 32.598 31.782 32.454 31.95C31.9374 32.5552 31.2015 32.9304 30.4082 32.9931C29.6149 33.0557 28.8292 32.8006 28.224 32.284C27.6188 31.7674 27.2436 31.0315 27.1809 30.2382C27.1183 29.4449 27.3734 28.6592 27.89 28.054C28.034 27.886 28.296 27.644 28.576 27.398C28.876 27.132 29.262 26.806 29.696 26.44C30.568 25.712 31.66 24.82 32.726 23.96C33.9951 22.9334 35.2684 21.912 36.546 20.896L36.898 20.614Z"
    fill="#FF9871" />
</svg>