<svg width="28" height="28" viewBox="0 0 28 28" fill="none" xmlns="http://www.w3.org/2000/svg">
  <g clip-path="url(#clip0_3081_1797)">
    <path
      d="M21.7475 1.904L20.0325 0H6.5267C5.5523 0 5.1757 0.7224 5.1757 1.2866V6.3686H7.0699V2.3142C7.0699 2.0986 7.2519 1.9166 7.4619 1.9166H17.1261C17.3389 1.9166 17.4453 1.9544 17.4453 2.1294V8.8774H24.3235C24.5937 8.8774 24.6987 9.0174 24.6987 9.2218V25.6998C24.6987 26.0442 24.5587 26.096 24.3487 26.096H7.4619C7.35777 26.0935 7.25869 26.0506 7.18556 25.9764C7.11243 25.9022 7.07096 25.8026 7.0699 25.6984V24.192H5.1883V26.565C5.1631 27.405 5.6111 28 6.5267 28H25.2839C26.2639 28 26.5985 27.2902 26.5985 26.6434V7.2618L26.1085 6.7298L21.7475 1.904ZM19.3703 2.128L19.9121 2.7356L23.5465 6.7298L23.7467 6.972H20.0325C19.7525 6.972 19.5752 6.92533 19.5005 6.832C19.4258 6.74053 19.3824 6.59447 19.3703 6.3938V2.128ZM17.8443 14.9338H24.2521V16.8014H17.8429L17.8443 14.9338ZM17.8443 11.2014H24.2521V13.0676H17.8429L17.8443 11.2014ZM17.8443 18.6676H24.2521V20.5352H17.8429L17.8443 18.6676ZM1.3999 7.8764V22.8102H16.0509V7.8764H1.3999ZM8.7261 16.562L7.8301 17.9312H8.7261V19.6H4.2223L7.4899 14.686L4.5947 10.2676H7.0139L8.7275 12.838L10.4397 10.2676H12.8575L9.9567 14.686L13.2285 19.6H10.7183L8.7261 16.562Z"
      fill="#518B66" />
  </g>
  <defs>
    <clipPath id="clip0_3081_1797">
      <rect width="28" height="28" fill="white" />
    </clipPath>
  </defs>
</svg>