<svg width="24" height="24" viewBox="0 0 24 24" fill="none" xmlns="http://www.w3.org/2000/svg">
  <g clip-path="url(#clip0_3102_4022)">
    <path
      d="M19.5263 22.6667H4.47301C4.32418 22.6675 4.17663 22.6391 4.03879 22.583C3.90095 22.5268 3.77552 22.4441 3.66966 22.3394C3.5638 22.2348 3.47959 22.1104 3.42182 21.9732C3.36406 21.836 3.33388 21.6888 3.33301 21.54V4.46C3.33696 4.29509 3.37585 4.13288 3.4471 3.9841C3.51835 3.83532 3.62034 3.70333 3.74634 3.59686C3.87234 3.49039 4.01949 3.41185 4.17808 3.36642C4.33666 3.321 4.50308 3.30972 4.66634 3.33333H5.99967V4.66667H4.66634V21.3333H19.333V4.66667H17.9997V3.33333H19.4997C19.6507 3.32889 19.8011 3.35469 19.9421 3.40924C20.083 3.46378 20.2116 3.54596 20.3203 3.65094C20.429 3.75591 20.5156 3.88157 20.5751 4.02051C20.6345 4.15946 20.6655 4.30888 20.6663 4.46V21.54C20.6655 21.6888 20.6353 21.836 20.5775 21.9732C20.5198 22.1104 20.4355 22.2348 20.3297 22.3394C20.2238 22.4441 20.0984 22.5268 19.9606 22.583C19.8227 22.6391 19.6752 22.6675 19.5263 22.6667Z"
      fill="#204FB6" />
    <path
      d="M11.1067 17.1733L7.53336 13.6C7.42498 13.4717 7.36902 13.3072 7.37667 13.1395C7.38431 12.9717 7.455 12.813 7.57459 12.6951C7.69419 12.5772 7.85388 12.5087 8.02175 12.5035C8.18961 12.4982 8.35328 12.5565 8.48003 12.6667L11.1067 15.2933L16.8667 9.53334C16.9942 9.42412 17.1583 9.36705 17.3261 9.37353C17.4938 9.38001 17.653 9.44956 17.7717 9.56829C17.8905 9.68702 17.96 9.84618 17.9665 10.014C17.973 10.1818 17.9159 10.3458 17.8067 10.4733L11.1067 17.1733Z"
      fill="#204FB6" />
    <path
      d="M17.3337 7.33334H6.66699V4.88667C6.66875 4.47524 6.83296 4.08116 7.12389 3.79024C7.41482 3.49931 7.8089 3.33509 8.22033 3.33334H9.41366C9.56053 2.75973 9.89413 2.25131 10.3619 1.88825C10.8296 1.52518 11.4049 1.32811 11.997 1.32811C12.5891 1.32811 13.1644 1.52518 13.6321 1.88825C14.0999 2.25131 14.4335 2.75973 14.5803 3.33334H15.7737C16.1862 3.33333 16.582 3.49678 16.8744 3.78789C17.1668 4.07901 17.3319 4.47409 17.3337 4.88667V7.33334ZM8.00033 6H16.0003V4.88667C16.0003 4.82832 15.9771 4.77237 15.9359 4.73111C15.8946 4.68985 15.8387 4.66667 15.7803 4.66667H13.3337V4.00001C13.3337 3.64638 13.1932 3.30724 12.9431 3.0572C12.6931 2.80715 12.3539 2.66667 12.0003 2.66667C11.6467 2.66667 11.3076 2.80715 11.0575 3.0572C10.8075 3.30724 10.667 3.64638 10.667 4.00001V4.66667H8.22033C8.19143 4.66667 8.16283 4.67236 8.13614 4.68342C8.10944 4.69447 8.08519 4.71068 8.06476 4.73111C8.04433 4.75154 8.02813 4.77579 8.01707 4.80248C8.00602 4.82917 8.00033 4.85778 8.00033 4.88667V6Z"
      fill="#204FB6" />
  </g>
  <defs>
    <clipPath id="clip0_3102_4022">
      <rect width="24" height="24" fill="white" />
    </clipPath>
  </defs>
</svg>