<svg width="28" height="28" viewBox="0 0 28 28" fill="none" xmlns="http://www.w3.org/2000/svg">
  <path
    d="M18.6665 17.5C23.3437 17.4242 26.8332 13.9615 26.8332 9.33334C26.8332 5.81933 25.67 6.9825 24.4998 8.16667C23.3437 9.31 20.9998 11.6667 20.9998 11.6667L16.3332 7C16.3332 7 18.6898 4.65617 19.8332 3.5C21.0173 2.32983 21.0173 1.16667 18.6665 1.16667C14.0383 1.16667 10.5617 4.65617 10.4998 9.33334C10.5488 10.472 10.4998 12.8333 10.4998 12.8333C8.30066 15.0465 5.43649 17.9118 3.49982 19.8333C0.0791568 23.268 4.73182 27.9207 8.16649 24.5C10.0915 22.561 12.965 19.6875 15.1665 17.5C15.1665 17.5 17.5278 17.451 18.6665 17.5Z"
    stroke="#494D88" stroke-width="1.33333" />
</svg>