<svg width="60" height="60" viewBox="0 0 60 60" fill="none" xmlns="http://www.w3.org/2000/svg">
  <path opacity="0.21" fill-rule="evenodd" clip-rule="evenodd"
    d="M0 30V37C0 49.7025 10.2975 60 23 60H30H37C49.7025 60 60 49.7025 60 37V30V23C60 10.2975 49.7025 0 37 0H30H23C10.2975 0 0 10.2975 0 23V30Z"
    fill="#FEC53D" />
  <path fill-rule="evenodd" clip-rule="evenodd"
    d="M23.124 16.5C22.7118 17.4464 22.4993 18.4677 22.5 19.5C22.5 20.2956 22.8161 21.0587 23.3787 21.6213C23.9413 22.1839 24.7044 22.5 25.5 22.5H34.5C35.2956 22.5 36.0587 22.1839 36.6213 21.6213C37.1839 21.0587 37.5 20.2956 37.5 19.5C37.5 18.4335 37.278 17.418 36.876 16.5H39C39.7956 16.5 40.5587 16.8161 41.1213 17.3787C41.6839 17.9413 42 18.7044 42 19.5V42C42 42.7956 41.6839 43.5587 41.1213 44.1213C40.5587 44.6839 39.7956 45 39 45H21C20.2044 45 19.4413 44.6839 18.8787 44.1213C18.3161 43.5587 18 42.7956 18 42V19.5C18 18.7044 18.3161 17.9413 18.8787 17.3787C19.4413 16.8161 20.2044 16.5 21 16.5H23.124ZM30 33H25.5C25.1022 33 24.7206 33.158 24.4393 33.4393C24.158 33.7206 24 34.1022 24 34.5C24 34.8978 24.158 35.2794 24.4393 35.5607C24.7206 35.842 25.1022 36 25.5 36H30C30.3978 36 30.7794 35.842 31.0607 35.5607C31.342 35.2794 31.5 34.8978 31.5 34.5C31.5 34.1022 31.342 33.7206 31.0607 33.4393C30.7794 33.158 30.3978 33 30 33ZM34.5 27H25.5C25.1177 27.0004 24.75 27.1468 24.4719 27.4093C24.1939 27.6717 24.0266 28.0304 24.0042 28.4121C23.9818 28.7938 24.106 29.1696 24.3514 29.4627C24.5968 29.7559 24.9449 29.9443 25.3245 29.9895L25.5 30H34.5C34.8978 30 35.2794 29.842 35.5607 29.5607C35.842 29.2794 36 28.8978 36 28.5C36 28.1022 35.842 27.7206 35.5607 27.4393C35.2794 27.158 34.8978 27 34.5 27ZM30 15C30.6331 15 31.2591 15.1336 31.8371 15.3921C32.415 15.6506 32.9319 16.0281 33.354 16.5C33.996 17.217 34.41 18.1395 34.4865 19.158L34.5 19.5H25.5C25.5 18.4125 25.8855 17.415 26.5275 16.638L26.646 16.5C27.471 15.579 28.668 15 30 15Z"
    fill="#E9C262" />
</svg>