<svg width="60" height="60" viewBox="0 0 60 60" fill="none" xmlns="http://www.w3.org/2000/svg">
  <path opacity="0.3" fill-rule="evenodd" clip-rule="evenodd"
    d="M0 30V37C0 49.7025 10.2975 60 23 60H30H37C49.7025 60 60 49.7025 60 37V30V23C60 10.2975 49.7025 0 37 0H30H23C10.2975 0 0 10.2975 0 23V30Z"
    fill="#FF9066" />
  <path
    d="M43.5753 39.0603L31.5919 16.8064C30.7425 15.2286 28.4799 15.2286 27.6298 16.8064L15.6471 39.0603C15.4627 39.4028 15.3702 39.7873 15.3788 40.1763C15.3873 40.5652 15.4965 40.9453 15.6958 41.2794C15.895 41.6135 16.1775 41.8903 16.5156 42.0826C16.8538 42.275 17.236 42.3764 17.625 42.377H41.5939C41.9832 42.377 42.3658 42.276 42.7045 42.0839C43.0431 41.8918 43.326 41.6151 43.5257 41.2809C43.7254 40.9467 43.8349 40.5664 43.8436 40.1771C43.8523 39.7879 43.7598 39.4031 43.5753 39.0603ZM29.6112 38.9316C29.3331 38.9316 29.0612 38.8492 28.8299 38.6946C28.5987 38.5401 28.4184 38.3205 28.312 38.0635C28.2056 37.8066 28.1777 37.5238 28.232 37.251C28.2862 36.9783 28.4202 36.7277 28.6168 36.531C28.8135 36.3344 29.0641 36.2004 29.3368 36.1462C29.6096 36.0919 29.8924 36.1197 30.1493 36.2262C30.4063 36.3326 30.6259 36.5129 30.7804 36.7441C30.935 36.9754 31.0174 37.2473 31.0174 37.5254C31.0174 37.8984 30.8693 38.256 30.6056 38.5198C30.3418 38.7835 29.9842 38.9316 29.6112 38.9316ZM31.1384 24.7883L30.7348 33.3664C30.7348 33.6648 30.6163 33.9509 30.4053 34.1619C30.1943 34.3729 29.9082 34.4914 29.6098 34.4914C29.3114 34.4914 29.0253 34.3729 28.8143 34.1619C28.6033 33.9509 28.4848 33.6648 28.4848 33.3664L28.0812 24.7918C28.0721 24.5869 28.1044 24.3823 28.1761 24.1901C28.2478 23.998 28.3574 23.8222 28.4985 23.6733C28.6396 23.5244 28.8092 23.4055 28.9972 23.3236C29.1852 23.2416 29.3878 23.1984 29.5929 23.1964H29.6077C29.8142 23.1963 30.0185 23.238 30.2084 23.3191C30.3984 23.4001 30.5699 23.5188 30.7127 23.668C30.8555 23.8171 30.9666 23.9937 31.0392 24.1869C31.1119 24.3802 31.1447 24.5862 31.1356 24.7925L31.1384 24.7883Z"
    fill="#FF9871" />
</svg>