<svg width="29" height="29" viewBox="0 0 29 29" fill="none" xmlns="http://www.w3.org/2000/svg">
  <rect x="0.75" y="0.239258" width="28" height="28" rx="14" fill="#E2D9FC" />
  <path
    d="M16.1233 12.2526L16.7367 12.8659L10.6967 18.9059H10.0833V18.2926L16.1233 12.2526ZM18.5233 8.23926C18.3567 8.23926 18.1833 8.30592 18.0567 8.43259L16.8367 9.65259L19.3367 12.1526L20.5567 10.9326C20.6185 10.8709 20.6675 10.7977 20.701 10.717C20.7344 10.6364 20.7516 10.5499 20.7516 10.4626C20.7516 10.3753 20.7344 10.2888 20.701 10.2082C20.6675 10.1275 20.6185 10.0543 20.5567 9.99259L18.9967 8.43259C18.8633 8.29926 18.6967 8.23926 18.5233 8.23926ZM16.1233 10.3659L8.75 17.7393V20.2393H11.25L18.6233 12.8659L16.1233 10.3659Z"
    fill="#5D2EEA" />
</svg>