<svg width="26" height="26" viewBox="0 0 26 26" fill="none" xmlns="http://www.w3.org/2000/svg">
  <path fill-rule="evenodd" clip-rule="evenodd"
    d="M13.0585 0.458336H12.9418C12.1672 0.458336 11.4987 0.458336 10.9632 0.530669C10.3903 0.607669 9.83966 0.781503 9.394 1.22717C8.94833 1.67284 8.7745 2.2235 8.6975 2.79634C8.62516 3.33184 8.62516 4.00034 8.62516 4.77617V7.60767C8.34381 7.50966 8.0481 7.45919 7.75016 7.45834H4.25016C3.90544 7.45834 3.5641 7.52623 3.24562 7.65815C2.92714 7.79007 2.63776 7.98343 2.39401 8.22718C2.15025 8.47093 1.9569 8.76031 1.82498 9.07879C1.69306 9.39727 1.62516 9.73862 1.62516 10.0833V23.7917H1.3335C1.10143 23.7917 0.878872 23.8839 0.714778 24.048C0.550683 24.212 0.458496 24.4346 0.458496 24.6667C0.458496 24.8987 0.550683 25.1213 0.714778 25.2854C0.878872 25.4495 1.10143 25.5417 1.3335 25.5417H24.6668C24.8989 25.5417 25.1215 25.4495 25.2856 25.2854C25.4496 25.1213 25.5418 24.8987 25.5418 24.6667C25.5418 24.4346 25.4496 24.212 25.2856 24.048C25.1215 23.8839 24.8989 23.7917 24.6668 23.7917H24.3752V15.9167C24.3752 15.2205 24.0986 14.5528 23.6063 14.0605C23.114 13.5682 22.4464 13.2917 21.7502 13.2917H18.2502C17.9422 13.2932 17.6505 13.343 17.3752 13.441V4.77617C17.3752 4.00034 17.3752 3.33184 17.3028 2.79634C17.2258 2.2235 17.052 1.67284 16.6063 1.22717C16.1607 0.781503 15.6112 0.607669 15.0372 0.530669C14.5017 0.458336 13.8332 0.458336 13.0573 0.458336M22.624 23.7917V15.9167C22.624 15.6846 22.5318 15.462 22.3677 15.298C22.2036 15.1339 21.9811 15.0417 21.749 15.0417H18.249C18.0169 15.0417 17.7944 15.1339 17.6303 15.298C17.4662 15.462 17.374 15.6846 17.374 15.9167V23.7917H22.624ZM15.624 23.7917V4.83334C15.624 3.984 15.6217 3.43334 15.568 3.02967C15.5167 2.6505 15.4338 2.5315 15.3673 2.465C15.3008 2.3985 15.1818 2.31567 14.8027 2.26434C14.3978 2.21067 13.8483 2.20834 12.999 2.20834C12.1497 2.20834 11.599 2.21067 11.1953 2.26434C10.8162 2.31567 10.6972 2.3985 10.6307 2.465C10.5642 2.5315 10.4813 2.6505 10.43 3.02967C10.3763 3.4345 10.374 3.984 10.374 4.83334V23.7917H15.624ZM8.624 23.7917V10.0833C8.624 9.85127 8.53181 9.62871 8.36772 9.46462C8.20362 9.30052 7.98106 9.20834 7.749 9.20834H4.249C4.01693 9.20834 3.79437 9.30052 3.63028 9.46462C3.46618 9.62871 3.374 9.85127 3.374 10.0833V23.7917H8.624Z"
    fill="white" />
</svg>